<?xml version="1.0" encoding="UTF-8"?>
<svg xmlns="http://www.w3.org/2000/svg" width="1103" height="836" viewBox="0 0 1103 836" role="img" aria-label="Elemento vectorizado sin fondo">
  <path d="M 28 10 L 27 11 L 26 11 L 25 12 L 24 12 L 23 13 L 20 14 L 17 17 L 17 19 L 16 20 L 16 22 L 15 23 L 15 31 L 16 32 L 16 35 L 17 36 L 17 37 L 22 42 L 23 42 L 26 44 L 28 44 L 29 45 L 32 45 L 33 46 L 38 46 L 39 47 L 50 47 L 51 48 L 58 48 L 59 49 L 63 49 L 64 50 L 68 50 L 69 51 L 71 51 L 72 52 L 75 52 L 78 54 L 80 54 L 81 55 L 83 55 L 84 56 L 85 56 L 86 57 L 87 57 L 88 58 L 91 59 L 93 61 L 94 61 L 96 63 L 97 63 L 100 66 L 101 66 L 111 76 L 111 77 L 114 80 L 114 81 L 118 86 L 119 89 L 121 91 L 121 92 L 122 93 L 122 94 L 125 99 L 125 101 L 127 104 L 127 106 L 129 109 L 129 111 L 130 112 L 130 115 L 131 116 L 131 118 L 132 119 L 132 122 L 133 123 L 133 126 L 134 127 L 134 131 L 135 132 L 135 137 L 136 138 L 136 143 L 137 144 L 137 152 L 138 153 L 138 162 L 139 163 L 139 175 L 140 176 L 140 197 L 141 198 L 141 366 L 140 367 L 140 558 L 139 559 L 139 611 L 138 612 L 138 655 L 137 656 L 137 673 L 136 674 L 136 685 L 135 686 L 135 693 L 134 694 L 134 699 L 133 700 L 133 705 L 132 706 L 132 710 L 131 711 L 131 714 L 130 715 L 130 718 L 129 719 L 129 721 L 128 722 L 128 724 L 127 725 L 127 727 L 126 728 L 126 730 L 124 733 L 124 735 L 123 736 L 123 737 L 122 738 L 122 739 L 121 740 L 120 743 L 118 745 L 117 748 L 115 750 L 114 753 L 109 758 L 109 759 L 103 765 L 102 765 L 99 768 L 98 768 L 93 772 L 90 773 L 88 775 L 86 775 L 85 776 L 84 776 L 79 779 L 77 779 L 76 780 L 75 780 L 74 781 L 72 781 L 71 782 L 68 782 L 67 783 L 64 783 L 63 784 L 60 784 L 59 785 L 56 785 L 55 786 L 51 786 L 50 787 L 44 787 L 43 788 L 38 788 L 37 789 L 30 789 L 29 790 L 25 790 L 24 791 L 22 791 L 21 792 L 19 792 L 18 793 L 16 793 L 14 795 L 13 795 L 9 800 L 9 803 L 8 804 L 8 810 L 9 811 L 9 814 L 10 815 L 11 818 L 13 820 L 13 821 L 14 821 L 19 825 L 22 825 L 23 826 L 38 826 L 39 825 L 52 825 L 53 824 L 64 824 L 65 823 L 78 823 L 79 822 L 93 822 L 94 821 L 112 821 L 113 820 L 135 820 L 136 819 L 165 819 L 166 818 L 283 818 L 284 817 L 316 817 L 316 803 L 315 802 L 315 765 L 314 764 L 314 730 L 313 729 L 313 713 L 312 712 L 312 698 L 311 697 L 311 673 L 310 672 L 310 439 L 311 438 L 311 416 L 310 415 L 310 376 L 311 375 L 311 353 L 310 352 L 310 338 L 311 337 L 311 194 L 312 193 L 312 165 L 313 164 L 313 141 L 314 140 L 314 129 L 315 128 L 315 121 L 316 120 L 316 115 L 317 114 L 317 110 L 318 109 L 318 106 L 319 105 L 319 102 L 320 101 L 320 99 L 321 98 L 321 96 L 322 95 L 322 93 L 323 92 L 323 91 L 324 90 L 324 89 L 325 88 L 326 85 L 328 83 L 328 82 L 330 80 L 330 79 L 342 67 L 343 67 L 346 64 L 349 63 L 351 61 L 353 61 L 358 58 L 360 58 L 361 57 L 363 57 L 364 56 L 366 56 L 367 55 L 369 55 L 370 54 L 373 54 L 374 53 L 377 53 L 378 52 L 382 52 L 383 51 L 388 51 L 389 50 L 393 50 L 394 49 L 402 49 L 403 48 L 410 48 L 411 47 L 417 47 L 418 46 L 422 46 L 423 45 L 426 45 L 427 44 L 430 44 L 431 43 L 433 43 L 434 42 L 437 41 L 439 39 L 440 39 L 443 36 L 443 35 L 445 32 L 445 21 L 444 20 L 444 18 L 440 13 L 439 13 L 437 11 L 436 11 L 435 10 L 432 10 L 431 9 L 424 9 L 423 8 L 415 8 L 414 9 L 385 9 L 384 10 L 365 10 L 364 11 L 345 11 L 344 12 L 323 12 L 322 13 L 292 13 L 291 14 L 219 14 L 218 13 L 185 13 L 184 12 L 152 12 L 151 11 L 121 11 L 120 10 L 92 10 L 91 9 L 54 9 L 53 8 L 39 8 L 38 9 L 32 9 L 31 10 Z M 739 10 L 738 11 L 735 12 L 732 15 L 732 16 L 730 19 L 730 21 L 729 22 L 729 30 L 730 31 L 730 33 L 731 34 L 732 37 L 736 41 L 737 41 L 738 42 L 739 42 L 744 45 L 746 45 L 747 46 L 749 46 L 750 47 L 754 47 L 755 48 L 758 48 L 759 49 L 762 49 L 763 50 L 766 50 L 767 51 L 769 51 L 770 52 L 772 52 L 773 53 L 775 53 L 776 54 L 778 54 L 781 56 L 783 56 L 784 57 L 785 57 L 786 58 L 789 59 L 791 61 L 792 61 L 794 63 L 795 63 L 805 73 L 805 74 L 806 75 L 806 76 L 809 81 L 809 86 L 810 87 L 810 92 L 809 93 L 809 97 L 808 98 L 808 100 L 807 101 L 807 103 L 806 104 L 806 105 L 805 106 L 805 107 L 804 108 L 804 109 L 803 110 L 802 113 L 800 115 L 800 116 L 799 117 L 799 118 L 797 120 L 797 121 L 794 124 L 794 125 L 791 128 L 791 129 L 788 132 L 788 133 L 784 137 L 784 138 L 780 142 L 780 143 L 776 147 L 776 148 L 771 153 L 771 154 L 766 159 L 766 160 L 761 165 L 761 166 L 755 172 L 755 173 L 749 179 L 749 180 L 743 186 L 743 187 L 738 192 L 738 193 L 731 200 L 731 201 L 725 207 L 725 208 L 718 215 L 718 216 L 711 223 L 711 224 L 705 230 L 705 231 L 691 246 L 691 247 L 685 253 L 685 254 L 669 271 L 669 272 L 656 285 L 656 286 L 644 298 L 644 299 L 624 319 L 624 320 L 623 321 L 622 321 L 585 358 L 584 358 L 572 370 L 571 370 L 562 379 L 561 379 L 556 384 L 555 384 L 548 391 L 547 391 L 542 396 L 542 397 L 541 398 L 541 463 L 542 463 L 546 459 L 547 459 L 556 450 L 557 450 L 568 440 L 569 440 L 572 437 L 573 437 L 580 431 L 581 431 L 583 429 L 586 428 L 591 424 L 592 424 L 593 423 L 596 422 L 598 420 L 599 420 L 604 417 L 606 417 L 607 416 L 608 416 L 609 415 L 611 415 L 614 413 L 616 413 L 617 412 L 620 412 L 621 411 L 623 411 L 624 410 L 627 410 L 628 409 L 633 409 L 634 408 L 650 408 L 651 409 L 656 409 L 657 410 L 660 410 L 661 411 L 664 411 L 665 412 L 667 412 L 670 414 L 672 414 L 673 415 L 674 415 L 675 416 L 678 417 L 680 419 L 681 419 L 683 421 L 684 421 L 687 424 L 688 424 L 693 429 L 694 429 L 703 438 L 703 439 L 707 443 L 707 444 L 710 447 L 710 448 L 712 450 L 712 451 L 716 456 L 716 457 L 717 458 L 717 459 L 718 460 L 719 463 L 721 465 L 721 466 L 724 471 L 724 473 L 727 478 L 727 480 L 729 483 L 729 485 L 730 486 L 730 488 L 732 491 L 732 493 L 733 494 L 733 496 L 734 497 L 734 500 L 735 501 L 735 503 L 736 504 L 736 506 L 737 507 L 737 510 L 738 511 L 738 514 L 739 515 L 739 517 L 740 518 L 740 521 L 741 522 L 741 525 L 742 526 L 742 529 L 743 530 L 743 534 L 744 535 L 744 538 L 745 539 L 745 543 L 746 544 L 746 548 L 747 549 L 747 553 L 748 554 L 748 558 L 749 559 L 749 564 L 750 565 L 750 569 L 751 570 L 751 575 L 752 576 L 752 581 L 753 582 L 753 587 L 754 588 L 754 593 L 755 594 L 755 599 L 756 600 L 756 604 L 757 605 L 757 610 L 758 611 L 758 616 L 759 617 L 759 622 L 760 623 L 760 627 L 761 628 L 761 633 L 762 634 L 762 639 L 763 640 L 763 644 L 764 645 L 764 650 L 765 651 L 765 656 L 766 657 L 766 661 L 767 662 L 767 667 L 768 668 L 768 672 L 769 673 L 769 678 L 770 679 L 770 683 L 771 684 L 771 688 L 772 689 L 772 694 L 773 695 L 773 699 L 774 700 L 774 704 L 775 705 L 775 709 L 776 710 L 776 714 L 777 715 L 777 719 L 778 720 L 778 723 L 779 724 L 779 728 L 780 729 L 780 732 L 781 733 L 781 737 L 782 738 L 782 741 L 783 742 L 783 745 L 784 746 L 784 749 L 785 750 L 785 753 L 786 754 L 786 757 L 787 758 L 787 761 L 788 762 L 788 764 L 789 765 L 789 767 L 790 768 L 790 771 L 791 772 L 791 774 L 792 775 L 792 777 L 793 778 L 793 780 L 794 781 L 794 783 L 797 788 L 797 790 L 800 795 L 800 797 L 801 798 L 801 799 L 802 800 L 802 801 L 803 802 L 803 803 L 804 804 L 804 805 L 805 806 L 805 807 L 806 808 L 807 811 L 809 813 L 809 814 L 810 815 L 810 816 L 811 817 L 811 818 L 812 819 L 812 820 L 813 821 L 814 824 L 817 827 L 818 826 L 828 826 L 829 825 L 839 825 L 840 824 L 849 824 L 850 823 L 861 823 L 862 822 L 875 822 L 876 821 L 889 821 L 890 820 L 982 820 L 983 821 L 998 821 L 999 822 L 1013 822 L 1014 823 L 1027 823 L 1028 824 L 1035 824 L 1036 825 L 1045 825 L 1046 826 L 1062 826 L 1063 827 L 1073 827 L 1074 826 L 1080 826 L 1081 825 L 1083 825 L 1084 824 L 1087 823 L 1092 818 L 1092 817 L 1094 814 L 1094 804 L 1093 803 L 1093 802 L 1087 796 L 1086 796 L 1085 795 L 1082 795 L 1081 794 L 1077 794 L 1076 793 L 1068 793 L 1067 792 L 1061 792 L 1060 791 L 1056 791 L 1055 790 L 1051 790 L 1050 789 L 1047 789 L 1046 788 L 1044 788 L 1043 787 L 1041 787 L 1040 786 L 1038 786 L 1035 784 L 1033 784 L 1032 783 L 1029 782 L 1027 780 L 1026 780 L 1025 779 L 1022 778 L 1020 776 L 1019 776 L 1017 774 L 1016 774 L 1014 772 L 1013 772 L 1009 768 L 1008 768 L 1001 761 L 1000 761 L 999 760 L 999 759 L 990 750 L 990 749 L 986 745 L 986 744 L 983 741 L 983 740 L 981 738 L 981 737 L 980 736 L 980 735 L 979 734 L 979 733 L 978 732 L 978 731 L 977 730 L 976 727 L 974 725 L 974 724 L 973 723 L 973 722 L 972 721 L 972 720 L 971 719 L 971 718 L 970 717 L 970 716 L 969 715 L 969 714 L 968 713 L 968 712 L 965 707 L 965 705 L 963 702 L 963 700 L 961 697 L 961 695 L 960 694 L 960 692 L 959 691 L 959 689 L 958 688 L 958 686 L 957 685 L 957 682 L 956 681 L 956 678 L 955 677 L 955 675 L 954 674 L 954 671 L 953 670 L 953 667 L 952 666 L 952 663 L 951 662 L 951 660 L 950 659 L 950 656 L 949 655 L 949 652 L 948 651 L 948 649 L 947 648 L 947 645 L 946 644 L 946 641 L 945 640 L 945 637 L 944 636 L 944 633 L 943 632 L 943 630 L 942 629 L 942 626 L 941 625 L 941 622 L 940 621 L 940 617 L 939 616 L 939 613 L 938 612 L 938 609 L 937 608 L 937 605 L 936 604 L 936 601 L 935 600 L 935 597 L 934 596 L 934 593 L 933 592 L 933 589 L 932 588 L 932 585 L 931 584 L 931 581 L 930 580 L 930 577 L 929 576 L 929 573 L 928 572 L 928 569 L 927 568 L 927 565 L 926 564 L 926 561 L 925 560 L 925 557 L 924 556 L 924 553 L 923 552 L 923 549 L 922 548 L 922 546 L 921 545 L 921 542 L 920 541 L 920 538 L 919 537 L 919 535 L 918 534 L 918 531 L 917 530 L 917 528 L 916 527 L 916 524 L 915 523 L 915 521 L 914 520 L 914 517 L 913 516 L 913 514 L 912 513 L 912 510 L 911 509 L 911 507 L 910 506 L 910 503 L 909 502 L 909 500 L 908 499 L 908 497 L 907 496 L 907 494 L 906 493 L 906 490 L 905 489 L 905 487 L 904 486 L 904 484 L 902 481 L 902 479 L 901 478 L 901 476 L 900 475 L 900 473 L 898 470 L 898 468 L 896 465 L 896 463 L 893 458 L 893 456 L 892 455 L 892 454 L 891 453 L 891 452 L 890 451 L 890 450 L 889 449 L 888 446 L 886 444 L 886 443 L 885 442 L 884 439 L 882 437 L 881 434 L 879 432 L 879 431 L 877 429 L 877 428 L 874 425 L 874 424 L 871 421 L 871 420 L 866 415 L 866 414 L 854 402 L 853 402 L 846 395 L 845 395 L 842 392 L 841 392 L 838 389 L 837 389 L 834 386 L 833 386 L 831 384 L 830 384 L 825 380 L 822 379 L 820 377 L 819 377 L 818 376 L 817 376 L 816 375 L 813 374 L 811 372 L 810 372 L 809 371 L 808 371 L 803 368 L 801 368 L 798 366 L 796 366 L 791 363 L 789 363 L 788 362 L 786 362 L 785 361 L 782 361 L 781 360 L 779 360 L 778 359 L 776 359 L 775 358 L 773 358 L 772 357 L 769 357 L 768 356 L 765 356 L 764 355 L 761 355 L 760 354 L 756 354 L 755 353 L 750 353 L 749 352 L 743 352 L 742 351 L 734 351 L 733 350 L 719 350 L 718 349 L 701 349 L 700 350 L 671 350 L 670 349 L 670 346 L 677 339 L 677 338 L 688 327 L 688 326 L 698 316 L 698 315 L 707 306 L 707 305 L 717 295 L 717 294 L 727 284 L 727 283 L 737 273 L 737 272 L 746 263 L 746 262 L 755 253 L 755 252 L 766 241 L 766 240 L 776 230 L 776 229 L 788 217 L 788 216 L 802 202 L 802 201 L 831 172 L 832 172 L 846 158 L 847 158 L 857 148 L 858 148 L 866 140 L 867 140 L 880 128 L 881 128 L 884 125 L 885 125 L 890 120 L 891 120 L 895 116 L 896 116 L 899 113 L 900 113 L 903 110 L 904 110 L 907 107 L 908 107 L 915 101 L 916 101 L 918 99 L 919 99 L 921 97 L 922 97 L 925 94 L 926 94 L 928 92 L 929 92 L 931 90 L 932 90 L 934 88 L 935 88 L 937 86 L 938 86 L 943 82 L 944 82 L 945 81 L 948 80 L 950 78 L 951 78 L 952 77 L 953 77 L 954 76 L 955 76 L 956 75 L 957 75 L 958 74 L 959 74 L 960 73 L 961 73 L 962 72 L 963 72 L 964 71 L 965 71 L 966 70 L 967 70 L 972 67 L 974 67 L 975 66 L 976 66 L 979 64 L 981 64 L 984 62 L 986 62 L 987 61 L 989 61 L 990 60 L 992 60 L 993 59 L 995 59 L 996 58 L 998 58 L 999 57 L 1001 57 L 1002 56 L 1005 56 L 1006 55 L 1008 55 L 1009 54 L 1012 54 L 1013 53 L 1017 53 L 1018 52 L 1021 52 L 1022 51 L 1026 51 L 1027 50 L 1032 50 L 1033 49 L 1038 49 L 1039 48 L 1044 48 L 1045 47 L 1049 47 L 1050 46 L 1053 46 L 1056 44 L 1058 44 L 1059 43 L 1060 43 L 1065 38 L 1065 37 L 1067 34 L 1067 23 L 1066 22 L 1066 20 L 1064 18 L 1064 17 L 1063 17 L 1060 14 L 1059 14 L 1056 12 L 1054 12 L 1053 11 L 1049 11 L 1048 10 L 1024 10 L 1023 11 L 1005 11 L 1004 12 L 986 12 L 985 13 L 969 13 L 968 14 L 953 14 L 952 15 L 930 15 L 929 16 L 860 16 L 859 15 L 834 15 L 833 14 L 816 14 L 815 13 L 803 13 L 802 12 L 792 12 L 791 11 L 782 11 L 781 10 L 774 10 L 773 9 L 759 9 L 758 8 L 748 8 L 747 9 L 743 9 L 742 10 Z M 681 555 L 680 555 L 678 553 L 676 553 L 675 552 L 671 552 L 670 551 L 667 551 L 666 552 L 664 552 L 663 553 L 661 553 L 660 554 L 659 554 L 653 560 L 653 561 L 652 562 L 652 563 L 650 565 L 650 566 L 649 567 L 649 568 L 648 569 L 648 570 L 647 571 L 647 572 L 646 573 L 646 574 L 645 575 L 645 576 L 644 577 L 643 580 L 641 582 L 641 583 L 640 584 L 640 585 L 639 586 L 639 587 L 638 588 L 637 591 L 635 593 L 635 594 L 634 595 L 634 596 L 633 597 L 633 598 L 632 599 L 631 602 L 629 604 L 628 607 L 626 609 L 625 612 L 623 614 L 623 615 L 622 616 L 621 619 L 619 621 L 618 624 L 616 626 L 616 627 L 612 632 L 611 635 L 609 637 L 609 638 L 607 640 L 607 641 L 605 643 L 605 644 L 603 646 L 603 647 L 601 649 L 601 650 L 599 652 L 599 653 L 596 656 L 596 657 L 594 659 L 594 660 L 591 663 L 591 664 L 589 666 L 589 667 L 585 671 L 585 672 L 582 675 L 582 676 L 578 680 L 578 681 L 573 686 L 573 687 L 567 693 L 567 694 L 555 706 L 554 706 L 545 715 L 544 715 L 539 720 L 538 720 L 534 724 L 533 724 L 530 727 L 529 727 L 525 731 L 524 731 L 521 734 L 520 734 L 516 738 L 515 738 L 512 741 L 511 741 L 508 744 L 507 744 L 504 747 L 503 747 L 500 750 L 499 750 L 496 753 L 495 753 L 492 756 L 491 756 L 488 759 L 487 759 L 484 762 L 483 762 L 476 768 L 475 768 L 473 770 L 472 770 L 468 774 L 467 774 L 464 777 L 463 777 L 461 779 L 460 779 L 457 782 L 456 782 L 453 785 L 452 785 L 450 787 L 449 787 L 446 790 L 445 790 L 442 793 L 441 793 L 438 796 L 437 796 L 434 799 L 433 799 L 426 805 L 425 805 L 423 807 L 422 807 L 419 810 L 418 810 L 416 812 L 415 812 L 408 818 L 405 819 L 398 825 L 414 825 L 415 826 L 634 826 L 635 825 L 644 825 L 644 821 L 645 820 L 645 816 L 646 815 L 646 811 L 647 810 L 647 805 L 648 804 L 648 800 L 649 799 L 649 795 L 650 794 L 650 790 L 651 789 L 651 783 L 652 782 L 652 778 L 653 777 L 653 773 L 654 772 L 654 767 L 655 766 L 655 762 L 656 761 L 656 757 L 657 756 L 657 752 L 658 751 L 658 746 L 659 745 L 659 741 L 660 740 L 660 736 L 661 735 L 661 730 L 662 729 L 662 725 L 663 724 L 663 720 L 664 719 L 664 714 L 665 713 L 665 709 L 666 708 L 666 704 L 667 703 L 667 698 L 668 697 L 668 693 L 669 692 L 669 687 L 670 686 L 670 682 L 671 681 L 671 676 L 672 675 L 672 671 L 673 670 L 673 665 L 674 664 L 674 659 L 675 658 L 675 653 L 676 652 L 676 648 L 677 647 L 677 641 L 678 640 L 678 635 L 679 634 L 679 629 L 680 628 L 680 622 L 681 621 L 681 615 L 682 614 L 682 607 L 683 606 L 683 599 L 684 598 L 684 589 L 685 588 L 685 577 L 686 576 L 686 566 L 685 565 L 685 562 L 684 561 L 684 559 L 681 556 Z" fill="#c5a785" fill-rule="evenodd"/>
</svg>
